inDegrees=no
num_controls=7
num_derivatives=13
num_iterations=46
num_multipliers=7
num_parameters=0
num_slacks=7
num_states=26
objective=0.445362
objective_accelerations=0.056657
objective_balance=0.002054
objective_effort=0.022253
objective_height=0.358986
objective_ligament=0.005413
solver_duration=684.247880
status=Solve_Succeeded
success=true
DataType=double
version=3
OpenSimVersion=4.5
endheader
time	/jointset/ground_pelvis/pelvis_tilt/value	/jointset/ground_pelvis/pelvis_tx/value	/jointset/ground_pelvis/pelvis_ty/value	/jointset/hip_l/hip_flexion_l/value	/jointset/hip_l/hip_adduction_l/value	/jointset/hip_l/hip_rotation_l/value	/jointset/back/lumbar_extension/value	/jointset/patellofemoral_l/patellar_flexion_l/value	/jointset/knee_l/knee_flexion_l/value	/jointset/knee_l/knee_adduction_l/value	/jointset/knee_l/knee_rotation_l/value	/jointset/ankle_l/ankle_angle_l/value	/jointset/subtalar_l/subtalar_angle_l/value	/jointset/ground_pelvis/pelvis_tilt/speed	/jointset/ground_pelvis/pelvis_tx/speed	/jointset/ground_pelvis/pelvis_ty/speed	/jointset/hip_l/hip_flexion_l/speed	/jointset/hip_l/hip_adduction_l/speed	/jointset/hip_l/hip_rotation_l/speed	/jointset/back/lumbar_extension/speed	/jointset/patellofemoral_l/patellar_flexion_l/speed	/jointset/knee_l/knee_flexion_l/speed	/jointset/knee_l/knee_adduction_l/speed	/jointset/knee_l/knee_rotation_l/speed	/jointset/ankle_l/ankle_angle_l/speed	/jointset/subtalar_l/subtalar_angle_l/speed	/forceset/tau_hip_flexion_l	/forceset/tau_hip_adduction_l	/forceset/tau_hip_rotation_l	/forceset/tau_knee_flexion_l	/forceset/tau_ankle_angle_l	/forceset/tau_subtalar_angle_l	/forceset/tau_lumbar_extension	lambda_cid13_p0	lambda_cid13_p1	lambda_cid13_p2	lambda_cid13_p3	lambda_cid13_p4	lambda_cid13_p5	lambda_cid14_p0	/jointset/ground_pelvis/pelvis_tilt/accel	/jointset/ground_pelvis/pelvis_tx/accel	/jointset/ground_pelvis/pelvis_ty/accel	/jointset/hip_l/hip_flexion_l/accel	/jointset/hip_l/hip_adduction_l/accel	/jointset/hip_l/hip_rotation_l/accel	/jointset/back/lumbar_extension/accel	/jointset/patellofemoral_l/patellar_flexion_l/accel	/jointset/knee_l/knee_flexion_l/accel	/jointset/knee_l/knee_adduction_l/accel	/jointset/knee_l/knee_rotation_l/accel	/jointset/ankle_l/ankle_angle_l/accel	/jointset/subtalar_l/subtalar_angle_l/accel	gamma_cid13_p0	gamma_cid13_p1	gamma_cid13_p2	gamma_cid13_p3	gamma_cid13_p4	gamma_cid13_p5	gamma_cid14_p0
0.5	-0.2633876924781315	0.01080737390911213	0.7651954983598784	0.9885783038946293	-0.4429550782351676	-0.1968724614602441	-0.2496001956440334	0.8741912692023401	0.8741912692024081	-0.1183890561522844	-0.1464644745273424	0.2175735740220576	0.02325614739268812	-0.5703326598614741	-0.1163154776049062	-0.5285680064473115	2.211463036630914	-0.2266995758630404	0.740369640780729	-0.1404393543662599	2.173164141508701	2.173164141508717	0.1710196068506349	-0.1268791808043915	0.7197273454439879	0.1424352095230376	-0.1388768074578714	0.0790014603666198	-0.01083012510111081	-0.2232153040887117	0.01764556792046142	0.002500954077298829	0.1465446085945741	-27.22694475164113	2.625636577267368	0.4510505344583387	2.995420287931124	-518.8193092405586	-26.27144794170161	-21.65780711769837	0.6601326439873265	0.352782423577391	-0.5509693623525682	-1.003746972328551	0.6627491043824548	-0.2443722103378733	0.9395532720415438	-1.358608712408406	-1.358608712408403	0.1756290773486106	0.1684632328721728	-0.8183371362400876	0.410727493350061	-6.225120051115226e-07	1.583434575001451e-07	4.747086958014691e-06	3.630614444322202e-07	-9.485383808891256e-07	-4.804358689169938e-07	-5.49379338375122e-07
0.51	-0.2690564548527529	0.009662109998157566	0.7598834557842908	1.010638148415453	-0.4451901846976917	-0.1894775353379761	-0.2509583275887519	0.8958514285289766	0.8958514285289845	-0.1166763639788692	-0.1477232538420086	0.2247284320985108	0.02469857420701095	-0.5633305922887355	-0.1127190368618048	-0.5337249682790032	2.200188382949425	-0.2203054643958275	0.7385134974283777	-0.1311892909814441	2.158580382987198	2.158580382987229	0.1715120331251444	-0.1248718750675968	0.711149847193758	0.1460266870967962	-0.1434500819202927	0.07988394795643076	-0.01095078694628587	-0.2266072443405789	0.01571399996507503	0.002850135182926309	0.1502136045693109	-28.02618808855208	2.724466070542051	0.3090327684686213	3.188183929777472	-522.4041142362501	-26.06886296306853	-20.65217595702454	0.7335389047226784	0.365891657330869	-0.4809187458158584	-1.23705498675815	0.6294719942983381	-0.1720873844758019	0.9173944112350427	-1.551250288002446	-1.551250288000232	-0.01479153081925936	0.2185200171720971	-0.8915708426466938	0.3292352584957107	-5.971029894170753e-07	3.352844537971023e-07	4.853638752766284e-06	4.100228514923665e-07	-9.434425592619974e-07	-3.133460771844061e-07	-5.440089318980855e-07
0.52	-0.2746525375334807	0.008553373846164608	0.7545232717599384	1.03257570031532	-0.4473610040802531	-0.1821043410465991	-0.2522240265917152	0.9173571520971998	0.9173571520971554	-0.1149589157293916	-0.1489616289446763	0.2317946922578151	0.02617609127089369	-0.5557967210837761	-0.1090099258125841	-0.5381962962002306	2.187004512439965	-0.2138421598723129	0.7360232746043471	-0.1219527660152828	2.142276989826443	2.142276989826488	0.1719708220668055	-0.1227983384072427	0.7020077620142362	0.1494532594348354	-0.1480233563827731	0.08076643554623912	-0.01107144879154228	-0.2299991845924438	0.01378243200969459	0.003199316288555364	0.1538826005439929	-28.82673738462337	2.822540111536518	0.1682628529548337	3.33475236963656	-526.0206773394187	-25.93710640169857	-19.65680079098183	0.7664933704315542	0.3753164848011855	-0.4138425802597401	-1.385590337922752	0.6765877156428109	-0.3711881046737378	0.936845588310686	-1.702535640259019	-1.702535640259016	0.1689016107789721	0.181709417584015	-0.9312545220985707	0.3777464462061204	-5.580216302315415e-07	5.608350410216343e-07	4.931307204164391e-06	4.646277787808753e-07	-9.28063543948292e-07	-1.129197086855737e-07	-5.292924058575889e-07
0.53	-0.2801708830783315	0.007482180403248948	0.7491218639185596	1.054372243652628	-0.4494667383513986	-0.1747586190745775	-0.2533976142955521	0.938691242146681	0.9386912421466455	-0.113237337725092	-0.1501785474065475	0.238766665173616	0.02768711152033852	-0.5477977014850224	-0.1052205846484232	-0.5419626848417136	2.172000218445336	-0.2072913678512028	0.7330126960169399	-0.1127963703678421	2.124246993942504	2.124246993942512	0.1723350031348362	-0.1205825055420527	0.6922834663425232	0.1527165183640073	-0.1522757744721543	0.08132074598172107	-0.01109560700309143	-0.2339008197727668	0.01224656773886171	0.003396598235808716	0.1572604417581232	-29.51860218856864	2.981372484976051	0.002019045164904319	3.546371200252887	-529.7431716610698	-25.78388382607175	-18.67441810555888	0.8277192819524815	0.3820683121435925	-0.3398329181985911	-1.603549356751613	0.6455569247866207	-0.2827609291208761	0.9002972107418092	-1.897231168948102	-1.89723116895364	-0.0310685790142094	0.2429242102486681	-1.008442720631957	0.294779484108513	-5.180206837279614e-07	7.383599967051796e-07	4.952782099188061e-06	5.04798557358039e-07	-9.046046203909789e-07	7.331288150340242e-08	-5.138916361473686e-07
0.54	-0.2856070158217198	0.006449145447958647	0.7436864330083445	1.076009603964688	-0.4515067183064368	-0.1674463565271069	-0.2544805859113564	0.9598362323160265	0.9598362323160025	-0.1115123668969017	-0.1513730267418917	0.2456383100065148	0.02922959713264303	-0.5393541607920628	-0.1013782282875125	-0.5450009099674353	2.155167907389956	-0.2006912966524357	0.7293313896956709	-0.103829548409152	2.104457013799093	2.104457013799065	0.1726493868497007	-0.1183105131063762	0.6819421454338367	0.1557463320066131	-0.156528192561563	0.08187505641720409	-0.01111976521487661	-0.2378024549530781	0.01071070346803503	0.003593880183070952	0.1606382829722268	-30.21138485219631	3.13983012179914	-0.1635498851133848	3.710510527352366	-533.4893361026542	-25.69756630214188	-17.70724470276529	0.8553975892728344	0.3859195241510664	-0.2682098771075022	-1.751193750072885	0.6864435511742101	-0.5053336514460669	0.8989308505606489	-2.054532492153354	-2.054532492153346	0.1589421401457709	0.1929413316812617	-1.054659569493373	0.3310573888928441	-4.77002321468245e-07	8.627502111093347e-07	4.91208539992512e-06	5.289996394886079e-07	-8.722062238832909e-07	2.438417169665801e-07	-4.977338308876667e-07
0.55	-0.29095661439187	0.005454778815348629	0.7382242863581219	1.097469753154103	-0.4534803872740727	-0.1601737467148109	-0.2554747349727046	0.98077479148548	0.9807747914854079	-0.1097847024668711	-0.1525442546708169	0.2524036728478186	0.03080138137106715	-0.5304910593507103	-0.09748797845721965	-0.5473022747367579	2.136558749818866	-0.1940360535693839	0.7251064184711978	-0.09503382306750577	2.082978538874384	2.082978538874344	0.1728532798160212	-0.1159202247627201	0.6710437681914545	0.1585753226061693	-0.1607610992462301	0.08221151862646335	-0.0110156181678363	-0.2418466432272313	0.009246307495657084	0.003715329351878463	0.163991905007992	-30.89049466785243	3.336362788374103	-0.3437990810463812	3.910125794478221	-537.3017690146748	-25.59989308892148	-16.75689178937773	0.9128549727324049	0.3917541188620259	-0.1923488827135358	-1.961358790726333	0.6552590746178623	-0.394165056320074	0.8648594950764179	-2.23584939098385	-2.235849390985638	-0.05319317113974686	0.2652729505037418	-1.120330675099384	0.2528139928380603	-4.307950377543669e-07	9.85498028532483e-07	4.835619030496591e-06	5.499078575005487e-07	-8.328368365578539e-07	4.156495865559499e-07	-4.773162856857123e-07
0.5600000000000001	-0.2962153642373699	0.004499549962320036	0.7327428762390319	1.11873469436179	-0.4553874649333224	-0.152946003854442	-0.2563819335568105	1.001490297026014	1.0014902970259	-0.1080558603163979	-0.1536909396433286	0.2590574711420006	0.03240025433495766	-0.5211844158627209	-0.09355067237122806	-0.5488536037408264	2.116126311043797	-0.1873730349764456	0.7203579993118419	-0.08643945296146055	2.059846288015507	2.059846288015456	0.1728849309417501	-0.1134019218272254	0.6596292360095204	0.16116407709977	-0.1649940059309001	0.08254798083571871	-0.01091147112098353	-0.2458908315013753	0.007781911523281032	0.003836778520684755	0.1673455270437568	-31.570620727896	3.5328783550593	-0.5238194349441525	4.063795341831129	-541.1369190692537	-25.5653948380105	-15.82445505809679	0.9441059986002819	0.3953307752907195	-0.1182027240567093	-2.1158499908689	0.6879986531515032	-0.6100232384226902	0.8586598034405331	-2.385287678986737	-2.385287678986722	0.1244937720275352	0.2185442500489385	-1.157890557403866	0.2830101677016906	-3.783610482954947e-07	1.106274969578424e-06	4.716229056869358e-06	5.668646385701358e-07	-7.851022602511179e-07	5.889922970967503e-07	-4.517870525530552e-07
0.5700000000000001	-0.3013790577478148	0.003583878306423676	0.7272497151096371	1.139786580151632	-0.4572277159801899	-0.145768377872856	-0.2572041569818026	1.021966443339051	1.021966443339034	-0.1063272527050972	-0.1548117905751387	0.2655947066207009	0.03402408449225267	-0.5114877152014166	-0.08958047335385431	-0.5496497402250997	2.09395661525386	-0.1806744023174996	0.7150667608323609	-0.07805034293762192	2.035118524448718	2.035118524448657	0.1728179730990535	-0.1107635123332718	0.6477406636900237	0.1635660012527491	-0.1690265456810759	0.08265812728139649	-0.01068526775538321	-0.2502363278966946	0.006599276015414092	0.003840073325687132	0.1705203059941017	-32.16924064986281	3.778466783153906	-0.7254073143348138	4.236386634398035	-544.9822335287893	-25.50115583852999	-14.91048831814626	0.9923597292814316	0.3984575741140495	-0.04113844387914926	-2.311760246821498	0.6604602369925022	-0.5041445694906831	0.8222699669490789	-2.556100747587216	-2.556100747588699	-0.0748542539450658	0.2881413944058351	-1.215809605145234	0.2126518275351037	-3.266219650393881e-07	1.192229230124114e-06	4.54473432061687e-06	5.728165839326924e-07	-7.321644961915417e-07	7.383406633673166e-07	-4.239301867292803e-07
0.58	-0.3064438027257667	0.002708027262531546	0.721752428748746	1.160607922808823	-0.4590010477675179	-0.138646758359431	-0.2579438426335313	1.042187396006004	1.042187396006091	-0.1045998274105433	-0.1559059269929314	0.2720107625690219	0.03567070754876569	-0.501394709364673	-0.08558654997038216	-0.5496786500400179	2.070017684513307	-0.1739891830694948	0.7091567056816845	-0.06993189831003573	2.008807558799439	2.008807558799369	0.1726484675952863	-0.1080590190258256	0.6353933299336185	0.1657226569432931	-0.1730590854312465	0.08276827372705389	-0.0104590643897945	-0.2545818242920134	0.005416640507541342	0.00384336813065879	0.17369508494446	-32.76954018360434	4.024874656060605	-0.9277226107431351	4.366928652410373	-548.8570380595689	-25.49483661438522	-14.01513093870417	1.023367033688233	0.4000756485103165	0.03524260981429569	-2.469696980992199	0.6853159709632901	-0.7337865726617772	0.8045267241901513	-2.701928095484666	-2.701928095484682	0.1039842398134801	0.2317610127474322	-1.249642844785704	0.2339564752145854	-2.757878759078138e-07	1.232833023041574e-06	4.305382219084987e-06	5.644366502349306e-07	-6.724504876166397e-07	8.564405812859499e-07	-3.93041985307771e-07
